REM DIRINDEX 1\8,1\2\11,1\3\12,1\3\14,1\5\15,1\5\16,1\6\17,1\6\18,1\4\19,1\4\20,1\4\21,1\4\22,1\7\23,1\7\24,1\7\25,1\2\9\26,1\2\9\27,1\2\10\28,1\2\10\29,1\2\10\30,1\2\10\31,1\2\10\32,1\3\13\33,1\3\13\34,1\3\13\35
REM DIRNAME cjc123,folder01,folder02,folder03,folder04,folder05,folder06,folder07,folder08,folder09,folder10,folder11,folder12,folder13,folder14,folder15,folder16,folder17,folder18,folder19,folder20,folder21,folder22,folder23,folder24,folder25,folder26,folder27,folder28,folder29,folder30,folder31,folder32,folder33,folder34
TITLE ""
FILE "75 075_UNIT1_SET1.mp3" MP3
  TRACK 01 AUDIO
    TITLE "14:cjc123_7186"
    INDEX 01 00:00:00
  TRACK 02 AUDIO
    TITLE "0:"
    INDEX 01 00:02:57
  TRACK 03 AUDIO
    TITLE "33:cjc123_7187"
    INDEX 01 00:03:37
  TRACK 04 AUDIO
    TITLE "0:"
    INDEX 01 00:04:54
  TRACK 05 AUDIO
    TITLE "34:cjc123_7188"
    INDEX 01 00:04:64
  TRACK 06 AUDIO
    TITLE "0:"
    INDEX 01 00:06:02
  TRACK 07 AUDIO
    TITLE "35:cjc123_7189"
    INDEX 01 00:06:49
  TRACK 08 AUDIO
    TITLE "0:"
    INDEX 01 00:09:14
  TRACK 09 AUDIO
    TITLE "33:cjc123_7190"
    INDEX 01 00:09:53
  TRACK 10 AUDIO
    TITLE "0:"
    INDEX 01 00:10:72
  TRACK 11 AUDIO
    TITLE "34:cjc123_7191"
    INDEX 01 00:11:15
  TRACK 12 AUDIO
    TITLE "0:"
    INDEX 01 00:12:40
  TRACK 13 AUDIO
    TITLE "35:cjc123_7192"
    INDEX 01 00:13:12
  TRACK 14 AUDIO
    TITLE "0:"
    INDEX 01 00:16:10
  TRACK 15 AUDIO
    TITLE "33:cjc123_7193"
    INDEX 01 00:17:04
  TRACK 16 AUDIO
    TITLE "0:"
    INDEX 01 00:17:69
  TRACK 17 AUDIO
    TITLE "34:cjc123_7194"
    INDEX 01 00:18:17
  TRACK 18 AUDIO
    TITLE "0:"
    INDEX 01 00:19:05
  TRACK 19 AUDIO
    TITLE "35:cjc123_7195"
    INDEX 01 00:19:58
  TRACK 20 AUDIO
    TITLE "0:"
    INDEX 01 00:22:60
  TRACK 21 AUDIO
    TITLE "33:cjc123_7196"
    INDEX 01 00:23:34
  TRACK 22 AUDIO
    TITLE "0:"
    INDEX 01 00:24:39
  TRACK 23 AUDIO
    TITLE "34:cjc123_7197"
    INDEX 01 00:24:49
  TRACK 24 AUDIO
    TITLE "0:"
    INDEX 01 00:25:46
  TRACK 25 AUDIO
    TITLE "35:cjc123_7198"
    INDEX 01 00:26:24
  TRACK 26 AUDIO
    TITLE "0:"
    INDEX 01 00:28:60
  TRACK 27 AUDIO
    TITLE "33:cjc123_7199"
    INDEX 01 00:29:25
  TRACK 28 AUDIO
    TITLE "0:"
    INDEX 01 00:30:38
  TRACK 29 AUDIO
    TITLE "34:cjc123_7200"
    INDEX 01 00:30:54
  TRACK 30 AUDIO
    TITLE "0:"
    INDEX 01 00:31:59
  TRACK 31 AUDIO
    TITLE "35:cjc123_7201"
    INDEX 01 00:32:29
  TRACK 32 AUDIO
    TITLE "0:"
    INDEX 01 00:35:19
  TRACK 33 AUDIO
    TITLE "33:cjc123_7202"
    INDEX 01 00:35:57
  TRACK 34 AUDIO
    TITLE "0:"
    INDEX 01 00:36:68
  TRACK 35 AUDIO
    TITLE "34:cjc123_7203"
    INDEX 01 00:37:16
  TRACK 36 AUDIO
    TITLE "0:"
    INDEX 01 00:38:35
  TRACK 37 AUDIO
    TITLE "35:cjc123_7204"
    INDEX 01 00:39:09
  TRACK 38 AUDIO
    TITLE "0:"
    INDEX 01 00:41:53
  TRACK 39 AUDIO
    TITLE "33:cjc123_7205"
    INDEX 01 00:42:21
  TRACK 40 AUDIO
    TITLE "0:"
    INDEX 01 00:43:27
  TRACK 41 AUDIO
    TITLE "34:cjc123_7206"
    INDEX 01 00:43:52
  TRACK 42 AUDIO
    TITLE "0:"
    INDEX 01 00:44:50
  TRACK 43 AUDIO
    TITLE "35:cjc123_7207"
    INDEX 01 00:45:22
  TRACK 44 AUDIO
    TITLE "0:"
    INDEX 01 00:47:62
  TRACK 45 AUDIO
    TITLE "33:cjc123_7208"
    INDEX 01 00:48:36
  TRACK 46 AUDIO
    TITLE "0:"
    INDEX 01 00:49:29
  TRACK 47 AUDIO
    TITLE "34:cjc123_7209"
    INDEX 01 00:49:55
  TRACK 48 AUDIO
    TITLE "0:"
    INDEX 01 00:50:52
  TRACK 49 AUDIO
    TITLE "35:cjc123_7210"
    INDEX 01 00:51:26
  TRACK 50 AUDIO
    TITLE "0:"
    INDEX 01 00:54:50
  TRACK 51 AUDIO
    TITLE "33:cjc123_7211"
    INDEX 01 00:55:14
  TRACK 52 AUDIO
    TITLE "0:"
    INDEX 01 00:56:31
  TRACK 53 AUDIO
    TITLE "34:cjc123_7212"
    INDEX 01 00:56:47
  TRACK 54 AUDIO
    TITLE "0:"
    INDEX 01 00:57:66
  TRACK 55 AUDIO
    TITLE "35:cjc123_7213"
    INDEX 01 00:58:42
  TRACK 56 AUDIO
    TITLE "0:"
    INDEX 01 01:01:33
  TRACK 57 AUDIO
    TITLE "33:cjc123_7214"
    INDEX 01 01:02:10
  TRACK 58 AUDIO
    TITLE "0:"
    INDEX 01 01:03:20
  TRACK 59 AUDIO
    TITLE "34:cjc123_7215"
    INDEX 01 01:03:51
  TRACK 60 AUDIO
    TITLE "0:"
    INDEX 01 01:04:66
  TRACK 61 AUDIO
    TITLE "35:cjc123_7216"
    INDEX 01 01:05:42
  TRACK 62 AUDIO
    TITLE "0:"
    INDEX 01 01:07:66
  TRACK 63 AUDIO
    TITLE "33:cjc123_7217"
    INDEX 01 01:08:56
  TRACK 64 AUDIO
    TITLE "0:"
    INDEX 01 01:09:59
  TRACK 65 AUDIO
    TITLE "34:cjc123_7218"
    INDEX 01 01:10:00
  TRACK 66 AUDIO
    TITLE "0:"
    INDEX 01 01:10:73
  TRACK 67 AUDIO
    TITLE "35:cjc123_7219"
    INDEX 01 01:11:56
  TRACK 68 AUDIO
    TITLE "0:"
    INDEX 01 01:14:59
  TRACK 69 AUDIO
    TITLE "33:cjc123_7220"
    INDEX 01 01:15:35
  TRACK 70 AUDIO
    TITLE "0:"
    INDEX 01 01:16:44
  TRACK 71 AUDIO
    TITLE "34:cjc123_7221"
    INDEX 01 01:16:58
  TRACK 72 AUDIO
    TITLE "0:"
    INDEX 01 01:17:67
  TRACK 73 AUDIO
    TITLE "35:cjc123_7222"
    INDEX 01 01:18:43
  TRACK 74 AUDIO
    TITLE "0:"
    INDEX 01 01:21:04
  TRACK 75 AUDIO
    TITLE "33:cjc123_7223"
    INDEX 01 01:21:55
  TRACK 76 AUDIO
    TITLE "0:"
    INDEX 01 01:22:48
  TRACK 77 AUDIO
    TITLE "34:cjc123_7224"
    INDEX 01 01:23:01
  TRACK 78 AUDIO
    TITLE "0:"
    INDEX 01 01:23:65
  TRACK 79 AUDIO
    TITLE "35:cjc123_7225"
    INDEX 01 01:24:51
  TRACK 80 AUDIO
    TITLE "0:"
    INDEX 01 01:27:55
  TRACK 81 AUDIO
    TITLE "33:cjc123_7226"
    INDEX 01 01:28:41
  TRACK 82 AUDIO
    TITLE "0:"
    INDEX 01 01:29:43
  TRACK 83 AUDIO
    TITLE "34:cjc123_7227"
    INDEX 01 01:29:64
  TRACK 84 AUDIO
    TITLE "0:"
    INDEX 01 01:30:64
  TRACK 85 AUDIO
    TITLE "35:cjc123_7228"
    INDEX 01 01:31:45
  TRACK 86 AUDIO
    TITLE "0:"
    INDEX 01 01:34:59
  TRACK 87 AUDIO
    TITLE "33:cjc123_7229"
    INDEX 01 01:35:65
  TRACK 88 AUDIO
    TITLE "0:"
    INDEX 01 01:36:58
  TRACK 89 AUDIO
    TITLE "34:cjc123_7230"
    INDEX 01 01:37:11
  TRACK 90 AUDIO
    TITLE "0:"
    INDEX 01 01:37:73
  TRACK 91 AUDIO
    TITLE "35:cjc123_7231"
    INDEX 01 01:38:36
  TRACK 92 AUDIO
    TITLE "0:"
    INDEX 01 01:41:12
